<?xml version="1.0" encoding="utf-8"?>
<!-- Generator: Adobe Illustrator 21.1.0, SVG Export Plug-In . SVG Version: 6.00 Build 0)  -->
<svg version="1.1" id="Layer_1" xmlns="http://www.w3.org/2000/svg" xmlns:xlink="http://www.w3.org/1999/xlink" x="0px" y="0px"
	 viewBox="0 0 734 1134" style="enable-background:new 0 0 734 1134;" xml:space="preserve">
<style type="text/css">
	.st0{fill:#A6CE39;}
</style>
<g>
	<path class="st0" d="M490.3,29.9c0.7-8.2,12.9-10.8,18-5.1c3.7,4.3,6.2,9.5,8.2,14.8c6.3,16.1,6.2,33.8,10.9,50.3
		c2.3,9.2,6.2,18.1,12.1,25.6c6,7.6,13,14.5,18.7,22.3c5.1,8.6,7.4,18.4,10.1,27.9c1,3.1,1,7,3.9,9.1c9.8,8.4,14.6,20.8,18.2,32.8
		c19,27,32.2,57.4,47.7,86.5c4.3,7.8,8,16.2,14.2,22.7c4.6,5.4,10.6,10.1,12.5,17.2c0.3,10.7,0.2,21.4,0.8,32.1
		c-5.8,5.4-11.9,10.5-18.2,15.4c-5.6,4.4-12.3,7.9-19.5,8.6c-36-1-72.1-1.3-108.1-3.4c-3.8-0.2-7.2-2.4-10.5-4
		c-13.7-6.9-26.3-17.7-42.3-18.6c-15.3-1.6-30.7-2.5-46.1-1.9c-10.8,0.3-21.4,1.9-32.2,2.5c-9,0.9-18.4-0.1-26.6-4.3
		c6.5-10.1,17.3-17.9,19.5-30.3c1.2-13.7,1.4-27.6-1.2-41.1c-1.3-5.9-2.7-12.1-6.9-16.7c-6.2-7.3-15.5-11-21.8-18.2
		c-2.6-2.8-4.9-6.2-5.4-10.1c-1.4-8.6-1-17.4-0.6-26c0.6-8.8,6.8-15.6,11.8-22.3c2.1-6.7-0.9-13.9-5.6-18.6c-4.2-4-9-8-14.8-9.1
		c-6.4-1.5-13.2-1.2-19.3-3.7c-3.7-1.3-4.7-5.5-6.4-8.6c-5.2-10.1-7.9-22.4-17.5-29.5c-12.9-8.6-24.8-18.7-35.9-29.5
		c8.2-4.3,17.7-5.2,26.9-5c43.3,0.2,86.7-0.3,130,2.4c13.1,0.3,26.5,1.7,39.4-1.4c8.2-2,16.2-5.8,22.3-11.8c5-5.4,7.8-12.6,9.2-19.7
		C488,50.7,489,40.2,490.3,29.9z"/>
	<g>
		<path class="st0" d="M239.1,112c4-4.5,9.1-7.8,13.9-11.5c9.9,10.7,20.6,20.8,32.9,28.6c3.5,2,6.7,4.6,9,8.1
			c6.2,9.1,8.6,20.3,14.4,29.6c9.9,9.4,26.1,4.5,35.9,14c2.5,2.8,6,5.9,5.2,10.1c-1.1,7.2-7.4,11.8-9.9,18.4
			c-4,9.8-3.7,20.8-2.1,31.1c0.9,5,1.5,10.4,4.7,14.5c6.4,9,17.2,13.3,24.2,21.9c2.7,3.2,4.8,7,5.4,11.1c2.2,12.4,3.7,25.2,2,37.8
			c-0.7,4.4-1.3,9.1-4.4,12.5c-13.8,17.9-26.7,37.5-46.2,49.6c-10.8,9.1-21.5,18.7-34.3,24.9c-2.4,1.2-5,1.8-7.7,2.1
			c-16.6,2.2-33.5,1.9-50.2,1c-6.9-0.5-13.9-0.6-20.6-2.2c-14.4-3-27.5-10.1-41.2-15.2c0.8-7.8,1.7-15.6,2.4-23.4
			c-6.3-1.1-12.6-2.1-18.7-4c-1.9-0.5-2.2-2.6-2.8-4.1c-1.2-4.5-0.5-9.3-1-13.9c11.5-4.4,25.2-5.8,33.5-15.9
			c-3.9-7.6-11.5-12.1-19-15.5c-1.5-0.8-3.4-1.1-4.2-2.7c-3.2-5.1-5.6-10.6-8.3-15.9c-8.9-3.2-17.2,3.2-25.8,4.6
			c-4,0.8-9.8,1.6-12.2-2.8c-1.6-3.9-2.2-9.5,1.5-12.4c10.3-9,23.5-14.1,36.9-16.5c-1.6-2.4-2.5-5.4-4.6-7.4
			c-12.2-2.9-24.9-1.9-37.3-1.4c1-8,2.1-16.1,2.9-24.2c0.6-5.8-0.2-11.9-3.2-17c3.4-11,14.3-19.8,26-19.7c6.9,1.5,13.1,5.6,20,7.5
			c5.6,1.3,12.2,0.8,16.8-3.1c3.8-3.5,5.1-8.9,5.4-13.9c0.4-8.2-0.9-16.4-1.3-24.7c13.6-2.9,25.9-9.7,37.9-16.5
			c4.8-3,10.6-5.3,13.6-10.4C234.4,135.1,232.1,121.8,239.1,112z M219.6,242.6c-12.2,8.6-24.7,16.9-38.3,23.1
			c4.9,11.3,9.8,23.4,19.6,31.4c10.9,8.4,26.1,1.3,37.5,8.6c11.3,6.6,25.5,11,38.3,5.9c6.2-2.1,10.7-7.2,14.8-12
			c5.3-6.4,9.7-14,10.4-22.5c0.1-3.1,0.6-6.7-1.9-9c-5.3-6.1-6.4-14.5-7.8-22.1c-10.8-10.4-22.3-20.7-36.2-26.5
			C243.5,226.7,231.5,234.6,219.6,242.6z"/>
	</g>
	<path class="st0" d="M190,269.5c22.6-12.9,44.7-27.1,65.1-43.5c10.4,6.3,20.2,13.6,29.2,21.8c1.8,8.5,3.5,17.6,9.5,24.3
		c2,1.7,0.9,4.2,0.5,6.4c-2.3,9.5-8.8,17.4-16,23.8c-8.7,5.5-19.9,3.6-29,0.2c-6.3-2-11.7-6.3-18.3-7.5c-6.6-1.4-13.4-1.4-20-2
		c-3.2,0-5.5-2.4-7.7-4.4C197.9,283.1,193.8,276.3,190,269.5z"/>
	<path class="st0" d="M85,329.8c12.5-0.4,25.4-3.3,35.8-10.7c0.9,11.1,7.9,20.7,8,31.9c-2.1,5.3-6.6,9.4-11.2,12.5
		c-6.3,4.1-14,6.5-21.5,5c-16.2-3.2-31.9-8.4-47.8-13.1c-0.8-8.1-0.7-16.2,0.4-24.3C60.8,330.4,72.9,330.1,85,329.8z"/>
	<path class="st0" d="M332.1,391c9.6-6.8,17.5-15.7,25.1-24.6c5.2,2.4,10.6,4.2,16.3,4.9c19.8,2.7,39.6-2,59.4-1.5
		c10,0,20.1,0.3,30.1,1.2c10.1,0.7,19.8,4.5,28.5,9.5c7.4,4.7,14.9,9.3,22.8,13.2c-5.9,5.6-12.6,10.5-19.5,15
		c-6,3.7-9.2,10.5-10.9,17.2c-1.3,5.7-2.6,11.4-4.1,17.1c-6.8,3.8-14.8,2.7-22,1.3c-11.2-1.5-22.5-4.1-33.8-2.1
		c-16.8,2.6-31.4,12.7-43.1,24.6c-5.6,5.8-11.3,12.3-13.4,20.3c-1.2,4,0.8,7.8,1.8,11.6c2.3,8.6,4.4,17.3,4.3,26.2
		c-0.1,34,0.1,68-0.4,102c-14.4-1.2-30-0.6-42.8-8.4c-3.7-3.8-5.9-8.8-8.2-13.6c-3.8-8.9-7.7-18-8.4-27.8c-1.3-11,0.2-22.2-2.1-33.1
		c-1.9-8.3-10-12.6-15.4-18.5c-3.8-3.3-5.3-8.2-7.1-12.7c-4.8-12.6-6.6-26.6-3.4-39.9c1-4.4,3-8.5,3.2-13c0.3-4.6-0.8-9.2-2.5-13.4
		c-3-7.4-6.1-14.8-8.6-22.4c10.3-1.9,19.7-7.1,28.1-13.3C314.7,404.4,323.4,397.7,332.1,391z"/>
	<path class="st0" d="M632.1,397.1c14.1-3.3,24.5-14.3,35.7-22.9c4.9,10.8,9.2,21.9,11.2,33.6c0.3,2.3,0.8,4.6,0.5,7
		c-1.4,9-3,18.1-2.2,27.3c1.2,11.2,8.9,20.6,9.5,31.8c-1.5,10.6-10.3,18.4-12.1,28.9c-1.5,14.8-2.7,29.7-5.3,44.3
		c-7.8,23.4-16.3,47-17.6,71.8c-1,8.1,5.9,14.6,12.5,17.7c10.1-3.4,17.3-11.8,25-18.6c2.5-2.2,6-0.5,7.9,1.7
		c3.5,3.4,2.9,8.8,2.5,13.2c-2.1,9.7-10.9,15.8-14.7,24.7c-5.9,15.6-7.3,32.4-7.5,48.9c-22.1-1-44.3-2.3-66.5-1.4
		c-14.5,0.6-25.7,12.1-39.9,13.9c-3.3,0.5-6.7-0.1-10-0.6c-16.6-2.8-33.5-3.8-50.4-4.4c7.3-5.6,15-10.5,22.4-16
		c5.4-4.8,9.7-11.1,11.3-18.3c1.1-5-0.1-10-1-14.9c-2.4-12.1-5.6-24-8.8-35.8c-2.8-7.8-10.1-12.6-16.6-17.1
		c-15.5,8.5-31.2,17.2-48.2,22.6c-8.9,1.7-16,7.9-21.6,14.6c-0.8,9.3-0.9,18.7-1.5,28c0,1.8-1.1,3.3-1.9,4.8
		c-3.7,6-7.2,12.2-10.8,18.3c-13.3-10.1-27.8-18.5-43.2-24.8c-5.3-2-9.5-6.4-11.2-11.8c-1.9-5.4-1.9-11.2-1.3-16.7
		c4.4-39.5,2.5-79.3,3-119c0.5-12.8-5.2-24.6-6.7-37c-0.7-3.2,1.3-5.9,2.8-8.5c6.9-11.9,18.1-20.6,30.3-26.6
		c6.4-3.1,13.1-6.2,20.3-6.6c16.4-1.2,32.6,4.6,49.1,2.8c3.5-0.3,6.9-2.1,8.7-5.2c5.3-8.2,2.4-19.3,9-26.9
		c7.7-9.4,20.1-14.2,26.6-24.8C558.3,395.1,595.2,396.4,632.1,397.1z"/>
	<path class="st0" d="M113.6,392.2c7.5-0.9,15,2.6,19.9,8.3c4.8,5.6,9.1,11.7,13.7,17.5c6.4-3.9,12.5-8.4,18.7-12.6
		c13.6,3.4,25.7,10.9,39.3,14.4c21.3,4.9,43.5,5.3,65.2,4c0.8,12,10,21.3,11,33.2c0.4,3.3-0.4,6.6-1.5,9.7
		c-3.6,11.2-3.9,23.3-1.4,34.7c-5.8,4.2-11.4,8.7-17.3,12.7c-5.4,3.7-11.9,5.2-17.2,9c-1.7,1.2-3.5,2.6-3.8,4.8
		c-2.5,12.5,0.3,25.4-2.4,37.9c-1,5.3-2.5,10.8-1.7,16.2c1.3,2,3.6,3.1,5.7,4.2c12.1,5.7,26.3,3.8,38.3,9.8
		c11,4.6,22.7,7.3,34.5,9.4c2.5,5.2,5.2,10.3,7.8,15.4c-14.3,5-28.7,10.5-43.9,11.5c-2.3-7.6-5.6-15.8-12.7-20.1
		c-4.1-2.6-9.1-2.2-13.8-2.4c-22.1-0.8-44.1-2.2-66-4.5c-7.6-0.7-14.3,4-19.4,9.2c-5.8,5.1-11.3,12-19.6,12.7
		c-7.6,1.1-14.8-2.1-21.9-4.1c-2-0.6-4.1-1.1-5.2-3c-4.1-5.3-8.7-10.3-11.7-16.4c-1.6-8.2,0.7-16.6,0.2-24.9c-0.8-12-6.5-23-6.7-35
		c0.1-7.7,0.7-15.3,1.2-23c0.3-6.3-2.8-12.6-8.3-15.7c0,10.8,0.4,21.7,0.3,32.5c-4.2-0.9-8.3-2.2-11.7-4.9c-5-3.7-7.6-9.7-9.6-15.4
		c-4.3-12.7-5.3-26.2-5.7-39.5c-1.2-6.7-6.3-11.9-8.1-18.4c-1.3-4.7-0.4-10.3,3.6-13.4c9.5-8.4,24.4-5.5,33.4-14.8
		c-3.5-5.3-6.8-10.8-10.2-16.2c6.4-6.1,14.9-9.3,23.4-11.1C111,400.1,112.4,396.2,113.6,392.2z"/>
	<path class="st0" d="M246.5,529.2c12.4-4.4,23.5-11.7,33.3-20.3c3,7.2,5.9,14.6,10.7,20.7c3.8,4.1,8.4,7.5,12.1,11.8
		c1.8,2.1,2.5,4.9,2.4,7.6c0.1,16.3,0.7,32.7,4.3,48.6c-9.5-2.5-19-5.1-28-8.9c-12.2-6.1-26.3-5.4-39.2-9
		C246.6,563.2,246.7,546.1,246.5,529.2z"/>
	<path class="st0" d="M174.3,617.2c3.4-3.3,8.3-4.2,12.8-4.4c8.7-0.1,17.3,1.7,25.9,2.2c14.6,0.9,29.4,0.5,43.9,2.7
		c2.9,0.3,5.7,1.4,7.8,3.6c4.3,4.3,4.8,11.1,8.4,15.8c6,2.6,12.9,2.5,19.3,1.6c11.9-1.8,22.8-7.2,33.9-11.6c1.4-0.8,2.8,0,4.2,0.4
		c13.5,4.6,27.8,6.8,42,6.3c-0.7,5.9-1.4,11.8-2.1,17.7c-8.8,1-17.7,1.4-26.4,2.9c-7.6,1.4-15.6,5.7-18.2,13.4
		c-8,21.2-21,39.9-30.9,60.2c-2.1,4.8-1.7,10.1-2.1,15.2c2.4,3,5.4,5.5,7.6,8.7c0.7,11.8-4.1,23.2-9.4,33.5c-30-0.4-60.4,1.8-90-4.3
		c-6.9-1-12.2-5.7-18-9.1c-8.2-5-15.5-12-25-14.5c-7.1-2.2-14.9-1.2-21.5,2.2c-1.7,6.9-2.8,14.7-8.3,19.7
		c-5.7,4.7-13.7,2.3-20.1,0.5c-13.3-4.7-25.2-12.5-37.3-19.7c7.7-10.1,19.6-17.2,32.5-17.6c-9.7-1.3-20-1.2-28.6-6.6
		c5.9-7.7,13.3-14,20.4-20.5c6.5-6.5,6.6-16.7,12.4-23.7c7.7-2.4,15.7-3.1,23.6-4.7c-9.9-15-21.3-29.1-29.7-45
		c5.4-3.6,9.6-9.1,15.9-11.4c2.2-1.1,4.5,0.2,6.7,0.7c6.8,1.9,13.7,4.3,20.9,4.3c6.8-0.5,13.4-3.4,18.5-7.8
		C167.2,624.2,170.7,620.6,174.3,617.2z"/>
	<path class="st0" d="M489.9,635.1c9.5-4,18.3-9.2,27.2-14.4c4.1,1.1,7.8,3.9,9.4,7.9c2.4,6.5,3.2,13.4,5.2,20
		c2.3,7.3,4.5,14.8,5.4,22.5c0.8,6.5-1,13.6-5.7,18.4c-8.8,9.8-21,15.4-31.5,23c-18.6-6.8-38.3-11.5-58.3-11.1
		c4.2-6.7,9-13.1,12.5-20.2c0.8-8.7,0.2-17.4,0.4-26.1c-0.1-1,0.2-1.9,0.8-2.7c3.2-4.3,7.8-7.4,12.7-9.4
		C475.2,640,482.6,637.6,489.9,635.1z"/>
	<path class="st0" d="M353,660.5c5.9-0.6,11.7-1.3,17.6-1.7c2.1,12,11.5,21.7,22.8,25.6c15,5.1,26.7,16.3,40.9,23
		c10.7,2.2,21.7,2.4,32.5,3c17,2.5,32.7,11.7,50.1,11.8c13.3-0.3,26.7,0.7,39.9,2.9c-0.8,14.9,3.5,29.6,10.1,42.8
		c-5.8,7.9-10.5,16.6-17.1,23.8c-2.8,2.5-5.6,6-9.7,5.8c-9.1,0.6-18.1,1.6-27,3c-8.8,1.6-18.1,5.6-22.6,13.8c-4.6,9-1.2,19.2-2,28.8
		c-13.4,6.6-25.7,16.9-31,31.2c-3.7,8.7-3.1,18.3-5.9,27.2c-1.7,4.6-7.4,4.7-11.5,4.9c-9.6-0.7-17.3-7.4-26.2-10.2
		c-4.6,0.3-9.2,1.6-13.8,1.9c-4.4,0.3-9.2,1.3-13.2-1c-5.8-3-9.6-8.5-14.6-12.4c-3.8-2.9-9-4.5-13.5-2.2
		c-13.1,6.3-26.2,12.7-39.4,19c-1.3-12.8-1.2-25.7-1.1-38.5c0.1-3.7,0.2-7.5-1.1-11c-4.6-13.8-17.7-22.6-22.3-36.4
		c-3.4-9.2-0.6-19.1,3.1-27.7c4.7-10.4,10.2-21.1,10-32.9c-0.1-6.6-4.4-11.9-8.4-16.7c6.5-21.1,20.5-38.6,29.3-58.6
		c2.4-4.8,3.3-10.6,7.7-14.1C341,661.7,347.3,661,353,660.5z"/>
	<path class="st0" d="M564.6,727.1c17.3,0.9,30.7-12.6,47.3-14.7c21.4-0.3,42.7,0.7,64.1,1.7c-14.3,25.7-20.8,55.2-37.7,79.5
		c-14.1-5.8-26.5-15-40-21.9c-7.8-3.9-16.2-6.8-25-7.3C567.3,753,564.3,740,564.6,727.1z"/>
	<g>
		<path class="st0" d="M144.1,763.8c8.9-1.6,18.1,1.4,25.1,6.9c6.1,4.6,12.6,8.9,19.1,13c9.3,5.6,20.3,6.3,30.8,7.5
			c22.6,2.5,45.3,2.3,68,1.8c-2.1,11.7-2,24.9,5.1,35c5.9,7.7,13.2,14.7,17,23.8c2.2,4.8,1.6,10.1,1.8,15.2
			c0.1,11.3,0.4,22.7,0.2,34c0.4,2.3-2.3,3.1-3.8,4.2c-13.4,7.5-29.8,5.1-43.6,11.6c-6.9,3.4-13.2,7.8-18.8,13.2
			c-4.4,4.3-8.8,8.7-13.5,12.7c-2.1,1.8-4.9,2.2-7.5,2.8c-10.3,2-21,1.6-31.2,4.3c-2.4,0.6-4.4,2.1-6.4,3.5
			c-6.7,4.9-13,10.4-18.7,16.4c-7.7,8.8-6.4,22-13.9,31c-1.3,1.9-3.7,2.5-5.9,3c-13.1,2.4-26.7-3.7-39.6,0.8
			c-6.5,6.3-10.7,14.6-16,21.9c-4,5.3-9.4,10.1-16.2,11.2c-7.1,1.3-15.4-1-19.2-7.5c-4.8-11.5-1.2-24.8-6.7-36.1
			c-4-7.4-7.9-15.4-7.2-24c0.2-3.5,1.7-6.7,3.6-9.6c8-1.1,16-1.2,24.1-1.7c0.6-5,3.8-10.5,0.8-15.2c-1.7-3-5.4-2.9-8.3-3.2
			c-5.7-0.7-11.6-0.7-17.1-2.3c-6.5-1.6-8.4-8.9-11.6-14c4.3-5.3,8.4-10.8,12.8-16c1.1-1.3,2-2.8,2.2-4.5
			c1.9-10.9-0.2-21.9-1.8-32.6c0.6-5.9,6.3-9.2,9.9-13.4c2.3-2.5,3.1-6.8,0.5-9.4c-6.9-8.1-17.3-12.5-24.4-20.5
			c-1.2-4.9,1.4-9.8,4.9-13.2c5.5-5.2,11.8-9.6,15.9-16c4.1-10.5,7-21.5,11.3-32C76,772.2,86.3,778,97,783
			c8.3,4.3,17.7,7.3,27.1,5.5c4.7-1.1,10-2.4,12.7-6.8C140.2,776.3,141.3,769.7,144.1,763.8z M136.4,812.8
			c-4.1,1.5-7.5,4.2-11.2,6.4c-6.7,4.5-13.6,9.1-19,15.1c-2.9,6.8-2.8,14.5-2.6,21.8c-0.1,2.7,2.1,4.7,3.5,6.9
			c8.9,11.8,22.3,19.7,36.5,23.6c17.4,5.4,35.8-2.7,48.8-14.2c8.8-7.5,17.2-15.5,24.8-24.3c2.5-3.5,4.6-8.2,3.2-12.4
			c-6.3-8.5-16.6-13.4-26.9-15.2c-12.6-1.5-25-4.3-37.4-6.4C149.6,812.7,142.9,811.2,136.4,812.8z"/>
	</g>
	<path class="st0" d="M546.3,804.2c12.4-7.4,18.4-21.1,26.4-32.5c14.1,0.9,26.5,8.1,38.4,15.2c7.5,4.3,15,8.7,22.7,12.8
		c-5.5,7.7-10.6,15.6-15.1,23.9c-4.1,7.4-4.2,16.3-8.2,23.8c-1.8,3.3-5.5,4.9-8.7,6.4c-6.1,2.8-13.3,3.5-19.6,1
		c-3.6-1.3-6.6-3.7-9.6-5.9c-5.9,9.4-12.1,18.7-19.2,27.2c-4.8-4.6-9.6-9.2-14.5-13.9c-1.2-1.4-3.1-1.5-4.7-1.8
		c-7-0.9-14.1-2.1-21-3.9c-2.1-0.5-3.9-1.9-5.6-3.2c-3.7-3-7.5-5.9-11.4-8.7c0-9.2,0-18.3,0-27.5c5.6-5,12.6-8.2,20-9.6
		C526.1,805.7,536.3,805.8,546.3,804.2z"/>
	<path class="st0" d="M112.5,837.2c9-6.2,17.1-14.1,27.6-17.8c2.7-0.3,5.3,0.4,8,0.6c14,1.9,28,4.5,41.9,6.9
		c8.4,1.2,15.7,5.6,23.1,9.4c-1,5.6-3.3,11.2-7.9,14.9c-9.1,7.9-17.6,16.7-28.1,23c-7,4.1-14.9,7-23.1,6.5
		c-15.6-0.6-29.5-9.7-40.3-20.4C108.2,853.7,112,844.8,112.5,837.2z"/>
	<path class="st0" d="M192,1025.2c2.4-1.5,5.2-1.1,7.9-1.2c15.7,0.1,31.5-0.2,47,2.5c5,0.7,9.5,4.1,11.9,8.5
		c3.4,6.3,3.7,13.8,3.4,20.9c-0.5,6.7-0.6,13.9-4.7,19.5c-4.6,6.7-12.5,9.5-19.8,12.3c-17.7,6.8-36.4,10-54.6,15.4
		c-12.8,3.4-26.3-1.4-38.9,3.1c-3.8,1.2-6.7,4.5-10.7,5.2c-3.5,0.6-7.1,0.2-10.6-0.2c-5.5-11-18.3-14.4-29.4-16.4
		c-0.8-3.7-1.7-7.4-2.4-11.1c4.1-1.5,8-3.5,11.2-6.4c7.3-6.4,13.2-14.2,19.2-21.8c8.1-8.3,19.8-11.3,30-16
		C164.6,1033.3,179.3,1032,192,1025.2z"/>
</g>
</svg>
